<svg width="16" height="16" viewBox="0 0 16 16" fill="none" xmlns="http://www.w3.org/2000/svg">
<path fill-rule="evenodd" clip-rule="evenodd" d="M2.96764 10.56C3.3211 10.56 3.60764 10.8465 3.60764 11.2V12.48C3.60764 12.6497 3.67505 12.8125 3.7951 12.9325C3.91511 13.0525 4.07789 13.12 4.24764 13.12H11.9276C12.0974 13.12 12.2601 13.0526 12.3802 12.9325C12.5002 12.8125 12.5676 12.6497 12.5676 12.48V11.2C12.5676 10.8465 12.8542 10.56 13.2076 10.56C13.5611 10.56 13.8476 10.8465 13.8476 11.2V12.48C13.8476 12.9892 13.6454 13.4776 13.2853 13.8376C12.9252 14.1977 12.4368 14.4 11.9276 14.4H4.24764C3.73843 14.4 3.25006 14.1978 2.88998 13.8376C2.52993 13.4776 2.32764 12.9892 2.32764 12.48V11.2C2.32764 10.8465 2.61417 10.56 2.96764 10.56Z" fill="#00D390"/>
<path fill-rule="evenodd" clip-rule="evenodd" d="M4.43501 6.90746C4.68495 6.65752 5.09017 6.65752 5.34011 6.90746L8.08755 9.65491L10.835 6.90746C11.0849 6.65752 11.4902 6.65752 11.7401 6.90746C11.9901 7.15738 11.9901 7.56262 11.7401 7.81254L8.54009 11.0125C8.29017 11.2625 7.88492 11.2625 7.635 11.0125L4.43501 7.81254C4.18508 7.56262 4.18508 7.15738 4.43501 6.90746Z" fill="#00D390"/>
<path fill-rule="evenodd" clip-rule="evenodd" d="M8.08775 2.23999C8.44123 2.23999 8.72775 2.52653 8.72775 2.87999V10.56C8.72775 10.9135 8.44123 11.2 8.08775 11.2C7.73428 11.2 7.44775 10.9135 7.44775 10.56V2.87999C7.44775 2.52653 7.73428 2.23999 8.08775 2.23999Z" fill="#00D390"/>
</svg>
